# xmcd
#
# Track frame offsets:
#	150
#	18225
#	40875
#	62550
#	78450
#	93800
#	117750
#	141375
#	159025
#	186375
#	207200
#	226525
#	247165
#	266325
#
# Disc length: 3785 seconds
#
# Revision: 7
# Processed by: cddbd v1.5.2PL0 Copyright (c) Steve Scherf et al.
# Submitted via: audiograbber 1.83.01
#
DISCID=ad0ec70e,c90ec70e
DTITLE=Paris Red - Promises
DYEAR=1992
DGENRE=Pop
TTITLE0=Paris Red - Promises
TTITLE1=Paris Red - Without You
TTITLE2=Paris Red - I Can't Give You Up
TTITLE3=Paris Red - Ain't No Mountain High Enough
TTITLE4=Paris Red - Lovin' You
TTITLE5=Paris Red - After The Love Has Lost Its Shine
TTITLE6=Paris Red - Party
TTITLE7=Paris Red - One And Everything
TTITLE8=Paris Red - Good Friend
TTITLE9=Paris Red - For A Lifetime
TTITLE10=Paris Red - Do Ya (Feel It)
TTITLE11=Paris Red - Promises (108 BPM)
TTITLE12=Paris Red - O. I. A.
TTITLE13=Paris Red - Sexy
EXTD=ID3G: 13
EXTT0=
EXTT1=
EXTT2=
EXTT3=
EXTT4=
EXTT5=
EXTT6=
EXTT7=
EXTT8=
EXTT9=
EXTT10=
EXTT11=
EXTT12=
EXTT13=
PLAYORDER=
